<?xml version="1.0" encoding="UTF-8" standalone="no"?>
<!-- Created with Inkscape (http://www.inkscape.org/) -->

<svg
   width="100mm"
   height="100mm"
   viewBox="0 0 99.999999 100"
   version="1.1"
   id="svg1"
   xml:space="preserve"
   inkscape:version="1.4.2 (f4327f4, 2025-05-13)"
   sodipodi:docname="icon.svg"
   inkscape:export-filename="icon.png"
   inkscape:export-xdpi="260.09601"
   inkscape:export-ydpi="260.09601"
   xmlns:inkscape="http://www.inkscape.org/namespaces/inkscape"
   xmlns:sodipodi="http://sodipodi.sourceforge.net/DTD/sodipodi-0.dtd"
   xmlns="http://www.w3.org/2000/svg"
   xmlns:svg="http://www.w3.org/2000/svg"><sodipodi:namedview
     id="namedview1"
     pagecolor="#ffffff"
     bordercolor="#000000"
     borderopacity="0.25"
     inkscape:showpageshadow="2"
     inkscape:pageopacity="0.0"
     inkscape:pagecheckerboard="0"
     inkscape:deskcolor="#d1d1d1"
     inkscape:document-units="mm"
     inkscape:zoom="0.8659091"
     inkscape:cx="180.15748"
     inkscape:cy="210.18372"
     inkscape:window-width="1280"
     inkscape:window-height="778"
     inkscape:window-x="-6"
     inkscape:window-y="-6"
     inkscape:window-maximized="1"
     inkscape:current-layer="layer1"
     showguides="true" /><defs
     id="defs1"><rect
       x="258.68765"
       y="416.90289"
       width="185.93176"
       height="144.35696"
       id="rect6" /><rect
       x="337.21786"
       y="458.47769"
       width="147.82152"
       height="66.981628"
       id="rect1" /><rect
       x="305.41074"
       y="442.60059"
       width="471.99841"
       height="122.49094"
       id="rect3" /></defs><g
     inkscape:label="Warstwa 1"
     inkscape:groupmode="layer"
     id="layer1"
     transform="translate(-4.3915447,-100.90868)"><text
       xml:space="preserve"
       transform="scale(0.26458333)"
       id="text3"
       style="text-align:start;writing-mode:lr-tb;direction:ltr;white-space:pre;shape-inside:url(#rect3);display:inline;fill:#fedb00;fill-opacity:1;stroke:none;stroke-width:2.51339;stroke-dasharray:none;stroke-opacity:1" /><text
       xml:space="preserve"
       transform="scale(0.26458333)"
       id="text1"
       style="font-style:normal;font-variant:normal;font-weight:800;font-stretch:normal;font-family:'Host Grotesk';-inkscape-font-specification:'Host Grotesk Ultra-Bold';text-align:start;writing-mode:lr-tb;direction:ltr;white-space:pre;shape-inside:url(#rect1);display:inline;fill:#000000" /><path
       style="fill:#04af5f;fill-opacity:1;stroke:none;stroke-width:0.835319;stroke-dasharray:none;stroke-opacity:1"
       d="m 29.721045,126.81651 c 1.224837,-0.88445 2.536673,-1.76126 3.867414,-2.47652 1.184979,-0.63691 2.339078,-1.16973 3.562093,-1.73015 1.298583,-0.59503 4.240587,-1.73016 4.240587,-1.73016 0,0 -1.642154,2.61253 -2.484732,3.92704 -1.152168,1.79748 -1.209545,1.79758 -1.826114,2.76484 -0.542854,0.85162 -1.414196,2.76969 -1.414196,2.76969 0,0 -2.05554,1.44263 -3.200561,2.37233 -1.286176,1.04433 -2.651915,2.07566 -3.807796,3.26258 -0.878006,0.90158 -1.572652,1.79859 -2.332574,2.80171 -0.833319,1.10003 -1.774356,2.26548 -2.464862,3.46032 -0.792023,1.37052 -1.41938,2.78497 -2.041301,4.24058 -0.518537,1.21365 -1.119282,2.55452 -1.466993,3.82767 -0.358173,1.31146 -0.676268,2.61045 -0.876222,3.95515 -0.162187,1.09071 -0.29186,2.189 -0.339246,3.29069 -0.087,2.02259 -0.07097,4.05544 0.101774,6.07252 0.100579,1.17442 0.286139,2.3438 0.542794,3.49424 0.359195,1.61007 0.841514,3.19399 1.390913,4.74945 0.460914,1.30494 0.95945,2.60382 1.59446,3.8335 0.899792,1.74241 1.941896,3.42003 3.121073,4.98693 1.150838,1.52924 2.474463,2.92689 3.833489,4.27451 0.995596,0.98723 2.030285,1.89667 3.154997,2.73385 1.303847,0.97052 2.710537,1.85039 4.138812,2.62625 1.218019,0.66163 2.477033,1.25336 3.76564,1.76408 1.283238,0.50859 2.653526,0.82277 3.983241,1.19318 1.453367,0.40488 2.866776,0.67433 4.362233,0.87382 1.458238,0.19454 2.939324,0.38123 4.410209,0.40951 1.684616,0.0324 3.378613,0.0276 5.054782,-0.14393 1.665715,-0.1705 3.300637,-0.44447 4.919078,-0.87382 1.44828,-0.38419 2.887454,-0.82417 4.274511,-1.39091 1.905372,-0.77852 3.754614,-1.70602 5.529727,-2.7479 1.536474,-0.90181 2.84752,-2.02526 4.218302,-3.16323 1.722667,-1.43009 3.262726,-2.75501 4.653503,-4.50957 1.066268,-1.34516 2.168476,-2.97161 3.001837,-4.47224 1.00421,-1.80829 1.814848,-3.68055 2.555993,-5.61161 0.673459,-1.75473 1.247287,-3.34641 1.622565,-5.18808 0.318706,-1.56404 0.613563,-3.34789 0.706596,-4.94137 0.117321,-2.00956 0.002,-4.03697 -0.211773,-6.03859 -0.113968,-1.06732 -0.240904,-2.20946 -0.50064,-3.25095 -0.376634,-1.51022 -0.809954,-2.91263 -1.323061,-4.3821 -0.50673,-1.45121 -1.093102,-2.70656 -1.778137,-4.0826 -0.716493,-1.43924 -1.520164,-2.86029 -2.428526,-4.1868 -0.91508,-1.33632 -1.668486,-2.28803 -2.74549,-3.49766 -0.67531,-0.75847 -1.531483,-1.67703 -2.267134,-2.37713 -0.556549,-0.52966 -1.840165,-1.60851 -1.840165,-1.60851 0,0 -0.08892,-1.748 -0.17204,-2.59234 -0.08519,-0.86544 -0.179924,-1.61634 -0.432791,-2.44839 -0.320592,-1.0549 -1.091409,-3.32703 -1.091409,-3.32703 0,0 4.56791,3.32449 6.683164,5.19048 1.499095,1.32244 2.952727,2.71169 4.240585,4.24058 1.061172,1.25979 1.927846,2.67198 2.849677,4.03704 0.59509,0.88122 1.208176,1.75365 1.730158,2.68005 0.697633,1.23814 1.302295,2.52885 1.865857,3.83349 0.556343,1.28793 1.077834,2.59506 1.492689,3.93526 0.454176,1.46724 0.785274,2.97179 1.085588,4.47806 0.270817,1.35833 0.542295,2.72361 0.64457,4.10489 0.105212,1.421 0.02439,2.85082 -0.03393,4.27451 -0.06266,1.52951 -0.150713,3.06069 -0.339247,4.57983 -0.145626,1.17341 -0.328978,2.34589 -0.610648,3.49425 -0.373152,1.52133 -0.653161,3.02287 -1.232928,4.47806 -0.557838,1.40015 -1.224741,2.78153 -1.919655,4.11894 -0.942945,1.81478 -1.828728,3.62549 -2.985372,5.31213 -1.189799,1.73499 -2.543683,3.51452 -3.989061,5.04314 -1.242356,1.3139 -2.758437,2.50861 -4.161099,3.6498 -1.654985,1.34649 -3.436181,2.65932 -5.272379,3.74577 -1.580015,0.93487 -3.15708,1.76343 -4.857051,2.45663 -1.821194,0.74265 -3.74397,1.31566 -5.645552,1.8179 -1.582425,0.41793 -3.098492,0.73759 -4.721352,0.94989 -1.370885,0.17933 -2.757355,0.26394 -4.138811,0.31935 -1.53685,0.0617 -3.271217,-0.0183 -4.805665,-0.1241 -2.30554,-0.15885 -4.62859,-0.39656 -6.876777,-0.93172 -2.094269,-0.49851 -4.196706,-1.13636 -6.188346,-1.95358 -1.894849,-0.77751 -3.758315,-1.72681 -5.519788,-2.77189 -1.397479,-0.82911 -2.825898,-1.86811 -4.099068,-2.87778 -1.574663,-1.24875 -2.991625,-2.68195 -4.382106,-4.13299 -1.350366,-1.40919 -2.498659,-2.9257 -3.635761,-4.51198 -0.7277,-1.01516 -1.331689,-2.1139 -1.967633,-3.18892 -0.595595,-1.00682 -1.239638,-1.99125 -1.730159,-3.05322 -0.747046,-1.61735 -1.29246,-2.8432 -1.831933,-4.5411 -0.365501,-1.15035 -0.693464,-2.79454 -0.949892,-3.97401 -0.326232,-1.50053 -0.561647,-3.02147 -0.746343,-4.54591 -0.191003,-1.5765 -0.403049,-3.1617 -0.373172,-4.74944 0.03491,-1.8554 0.35011,-3.69753 0.644569,-5.52974 0.267448,-1.66414 0.552625,-3.33295 1.017741,-4.953 0.482836,-1.68177 1.124711,-3.31867 1.831933,-4.91908 0.678688,-1.53584 1.461824,-3.02709 2.30688,-4.47806 0.707169,-1.21421 1.453616,-2.41176 2.306879,-3.52816 1.065254,-1.39376 2.291124,-2.65861 3.494242,-3.93527 0.932285,-0.98927 1.890002,-1.95593 2.883599,-2.8836 0.767457,-0.71654 1.523504,-1.45471 2.374735,-2.06938 z"
       id="path1"
       sodipodi:nodetypes="ssscsscssssssssssssssssssssssssssssssssssssscsscsssssssssssssssssssssssssssssssssssssssssss" /><path
       style="fill:#04af5f;fill-opacity:1;stroke:none;stroke-width:0.83532;stroke-dasharray:none;stroke-opacity:1;fill-rule:nonzero"
       d="m 50.278531,188.35651 c 0,0 -0.914862,-4.17743 -1.077419,-6.01008 -0.135646,-1.52925 -0.09199,-3.10926 0,-4.64176 0.0801,-1.33455 0.159319,-2.64226 0.503757,-3.93409 0.295383,-1.10785 0.846146,-2.24715 1.355345,-3.27441 0.629877,-1.27073 1.229179,-2.45099 2.063002,-3.59826 0.698862,-0.96157 1.596325,-1.89209 2.434818,-2.73468 0.934115,-0.93868 1.889994,-1.81793 2.938578,-2.62673 1.264523,-0.97537 2.643615,-1.83154 4.042041,-2.60274 1.390832,-0.76703 2.909844,-1.42557 4.353892,-2.08698 1.418721,-0.6498 2.834075,-1.23263 4.257938,-1.87109 1.214942,-0.54478 2.454164,-1.11048 3.634239,-1.72716 1.208086,-0.63133 2.14804,-1.11309 3.238429,-1.93107 1.244694,-0.93374 3.673988,-3.2439 3.673988,-3.2439 0,0 0.0468,8.07248 -0.471537,11.63225 -0.663348,4.55567 -1.574183,8.28215 -3.448507,12.51752 -1.095019,2.47439 -2.57647,4.65022 -4.651335,6.8127 -1.283282,1.33748 -2.463568,2.42735 -4.145873,3.10202 -2.145072,0.86028 -3.202738,1.5528 -5.690775,2.03731 -1.522887,0.29657 -2.883142,0.3978 -4.475892,0.91397 -0.903116,0.29267 -3.348727,1.80666 -3.348727,1.80666 0,0 1.908818,-3.63817 2.946453,-5.30314 1.356125,-2.17602 2.829356,-4.31426 4.365887,-6.36687 1.308163,-1.74753 2.660205,-3.21893 3.990304,-4.94982 1.060302,-1.37981 2.271831,-2.89632 3.291021,-4.30677 0.44969,-0.62232 0.433123,-0.57772 0.792073,-1.31981 0.11589,-0.23961 0.170371,-1.27385 0.170371,-1.27385 0,0 -2.637036,2.96163 -4.044099,4.33778 -1.610446,1.57508 -3.396019,2.96565 -4.989582,4.55779 -1.625532,1.62409 -3.189518,3.31466 -4.653748,5.08555 -1.449112,1.7526 -2.806396,3.584 -4.078023,5.46934 -1.080458,1.60192 -2.976619,5.53032 -2.976619,5.53032 z"
       id="path2"
       sodipodi:nodetypes="csssssssssssscsssssscssssscssssc" /><path
       style="fill:none;fill-opacity:1;stroke:none;stroke-width:0.83532;stroke-dasharray:none;stroke-opacity:1"
       d="m 56.387691,101.34178 c 0,0 -0.984031,6.9548 -2.302884,10.17107 -1.299805,3.16981 -3.440515,5.93652 -5.421374,8.73177 -2.729302,3.8514 -5.952922,7.23233 -8.875701,11.03465 -2.398873,3.12075 -5.020941,6.35135 -6.236979,10.02715 -1.239521,3.74677 -1.976893,7.71279 -2.063,11.65835 -0.109747,5.02893 0.442435,10.17032 1.978688,14.96011 0.911536,2.84203 2.377841,5.54579 4.207903,7.90352 1.622149,2.08987 5.861396,5.35111 5.861396,5.35111 0,0 -1.298601,-6.02064 -1.4931,-9.08266 -0.185171,-2.91517 -0.109873,-5.8676 0.315965,-8.75744 0.509154,-3.45525 1.756109,-6.92043 3.054049,-10.16285 1.093327,-2.73126 2.49305,-5.0987 3.874477,-7.69616 1.501204,-2.82268 2.995961,-5.65119 4.365883,-8.53986 1.036347,-2.18529 3.082156,-6.64549 3.082156,-6.64549 0,0 0.0826,0.90799 0.11241,1.37486 0.08977,1.40613 -0.16305,2.89141 -0.315965,4.28299 -0.411806,3.74758 -1.664885,7.2898 -2.686699,10.91883 -0.876811,3.11404 -1.979921,6.07758 -2.952275,9.24546 -0.837326,2.72796 -1.637029,8.40275 -1.637029,8.40275 0,0 2.259139,-3.28605 3.661282,-4.66879 2.111856,-2.08262 4.659326,-3.51791 7.120434,-5.17326 1.892731,-1.27305 3.919816,-2.31976 5.66367,-3.79016 1.15535,-0.97419 2.217569,-2.07872 3.112666,-3.29636 1.161982,-1.5807 2.194985,-3.29462 2.878606,-5.13351 0.642622,-1.72859 0.886892,-3.58995 1.103467,-5.42137 0.236781,-2.00228 0.373018,-4.03549 0.209367,-6.04507 -0.174725,-2.14556 -0.67346,-4.26309 -1.264857,-6.33294 -0.66041,-2.31138 -1.496795,-4.58347 -2.536951,-6.75067 -1.322591,-2.75565 -2.809181,-5.61202 -4.645097,-8.05585 -2.381967,-3.17068 -8.170514,-8.51018 -8.170514,-8.51018 z"
       id="path3"
       sodipodi:nodetypes="cssssssscssssscsssscsssssssssscc" /><path
       style="fill:#ffcc00;fill-opacity:1;stroke:none;stroke-width:0.332348;stroke-opacity:1"
       d="m 55.706359,100.90868 c 0,0 -0.394616,6.00863 -0.881042,7.99559 -0.666102,2.7209 -2.344161,5.36923 -3.731715,7.80268 -2.883799,5.05752 -5.903176,7.66639 -9.363217,12.34859 -2.323468,3.14417 -4.613494,4.89109 -6.309991,8.41332 -1.59344,3.30828 -2.922483,7.56271 -3.460319,11.19513 -0.503559,3.40093 -0.714311,7.24301 -0.271397,11.12732 0.468111,4.10528 2.072429,8.12838 3.663867,11.94149 2.048085,4.90725 8.074075,9.02396 8.074075,9.02396 0,0 -1.739317,-8.52491 -1.560534,-12.55213 0.229574,-5.17132 0.6009,-9.49397 2.917523,-14.24838 4.020769,-8.25181 12.077189,-24.49361 12.077189,-24.49361 0,0 -0.381649,7.07485 -1.01774,10.38095 -0.905083,4.70419 -2.737693,8.86365 -3.935263,13.50202 -0.906475,3.51092 -2.510429,10.58451 -2.510429,10.58451 0,0 5.347817,-5.79142 8.006227,-7.59913 4.498851,-3.0592 6.046252,-3.33575 9.159668,-6.24214 1.603735,-1.4971 3.346749,-3.57557 4.27451,-5.56367 1.362058,-2.91875 1.871292,-6.01076 2.035482,-9.2275 0.206639,-4.04838 -0.439291,-8.06616 -1.628384,-11.94149 -1.240312,-4.04224 -3.476483,-7.54811 -5.495803,-11.263 -2.384879,-4.38741 -10.042707,-11.18451 -10.042707,-11.18451 z"
       id="path5"
       sodipodi:nodetypes="cssssssscsscsscssssssc" /><text
       xml:space="preserve"
       transform="scale(0.26458333)"
       id="text6"
       style="font-style:normal;font-variant:normal;font-weight:600;font-stretch:normal;font-size:84px;font-family:'Host Grotesk';-inkscape-font-specification:'Host Grotesk Semi-Bold';text-align:start;writing-mode:lr-tb;direction:ltr;white-space:pre;shape-inside:url(#rect6);display:inline;fill:#f3d909;fill-opacity:1;stroke:none;stroke-opacity:1" /></g></svg>
