<?xml version="1.0" encoding="UTF-8" standalone="no"?>
<!-- Created with Inkscape (http://www.inkscape.org/) -->

<svg
   width="198.40367mm"
   height="79.610306mm"
   viewBox="0 0 198.40367 79.610306"
   version="1.1"
   id="svg1"
   xml:space="preserve"
   inkscape:version="1.4.2 (f4327f4, 2025-05-13)"
   sodipodi:docname="logo.svg"
   inkscape:export-filename="logo.png"
   inkscape:export-xdpi="262.18869"
   inkscape:export-ydpi="262.18869"
   xmlns:inkscape="http://www.inkscape.org/namespaces/inkscape"
   xmlns:sodipodi="http://sodipodi.sourceforge.net/DTD/sodipodi-0.dtd"
   xmlns="http://www.w3.org/2000/svg"
   xmlns:svg="http://www.w3.org/2000/svg"><sodipodi:namedview
     id="namedview1"
     pagecolor="#ffffff"
     bordercolor="#000000"
     borderopacity="0.25"
     inkscape:showpageshadow="2"
     inkscape:pageopacity="0.0"
     inkscape:pagecheckerboard="0"
     inkscape:deskcolor="#d1d1d1"
     inkscape:document-units="mm"
     inkscape:zoom="0.43295455"
     inkscape:cx="277.16535"
     inkscape:cy="-226.3517"
     inkscape:window-width="1280"
     inkscape:window-height="778"
     inkscape:window-x="-6"
     inkscape:window-y="-6"
     inkscape:window-maximized="1"
     inkscape:current-layer="layer1"
     showguides="true" /><defs
     id="defs1"><rect
       x="258.68765"
       y="416.90289"
       width="185.93176"
       height="144.35696"
       id="rect6" /><rect
       x="337.21786"
       y="458.47769"
       width="147.82152"
       height="66.981628"
       id="rect1" /><rect
       x="305.41074"
       y="442.60059"
       width="471.99841"
       height="122.49094"
       id="rect3" /></defs><g
     inkscape:label="Warstwa 1"
     inkscape:groupmode="layer"
     id="layer1"
     transform="translate(-4.3915447,-100.90868)"><path
       style="fill:#04af5f;fill-opacity:1;stroke:none;stroke-width:0.665;stroke-dasharray:none;stroke-opacity:1"
       d="m 18.149074,121.53398 c 0.975096,-0.70411 2.019453,-1.40214 3.07886,-1.97156 0.943365,-0.50705 1.862147,-0.93123 2.835793,-1.37738 1.033806,-0.47371 3.375944,-1.37739 3.375944,-1.37739 0,0 -1.307324,2.07985 -1.978103,3.12633 -0.917244,1.43098 -0.962922,1.43106 -1.453775,2.2011 -0.432167,0.67798 -1.125845,2.20496 -1.125845,2.20496 0,0 -1.636422,1.14848 -2.547977,1.88862 -1.023928,0.83139 -2.111197,1.65244 -3.031398,2.59735 -0.698983,0.71775 -1.251993,1.43186 -1.856969,2.23045 -0.663408,0.87573 -1.41257,1.80355 -1.962284,2.75477 -0.630532,1.09107 -1.129973,2.21712 -1.625086,3.37594 -0.412809,0.96619 -0.891064,2.03366 -1.167878,3.04722 -0.285142,1.04405 -0.538379,2.07818 -0.6975625,3.1487 -0.1291176,0.86832 -0.2323509,1.74267 -0.2700753,2.61973 -0.069258,1.61019 -0.0565,3.22855 0.081023,4.83435 0.080071,0.93496 0.2277958,1.86591 0.4321198,2.78178 0.285956,1.28178 0.669932,2.54274 1.10731,3.78105 0.366935,1.03887 0.763821,2.07291 1.269355,3.05186 0.716327,1.38714 1.545949,2.7227 2.484695,3.97011 0.916186,1.21743 1.969928,2.33011 3.051853,3.40295 0.792597,0.78594 1.616316,1.50995 2.511702,2.17643 1.037997,0.77263 2.157867,1.4731 3.294921,2.09076 0.969669,0.52673 1.971974,0.99781 2.997838,1.40439 1.021589,0.40489 2.11248,0.65501 3.17107,0.9499 1.15703,0.32232 2.282249,0.53683 3.472787,0.69565 1.160908,0.15487 2.340005,0.3035 3.510981,0.32601 1.341128,0.0258 2.689724,0.022 4.024127,-0.11458 1.326081,-0.13574 2.627647,-0.35385 3.916093,-0.69565 1.15298,-0.30586 2.298711,-0.65613 3.402951,-1.10731 1.516873,-0.61978 2.98906,-1.35817 4.402233,-2.18761 1.223191,-0.71794 2.266919,-1.61232 3.358203,-2.51826 1.37142,-1.1385 2.597466,-2.19327 3.704668,-3.59008 0.848859,-1.07089 1.72633,-2.36571 2.389771,-3.56037 0.799455,-1.43958 1.444806,-2.93009 2.034834,-4.46742 0.536143,-1.39694 0.992969,-2.66408 1.291729,-4.13024 0.253723,-1.24514 0.488459,-2.66527 0.562523,-3.93384 0.0934,-1.59982 0.0016,-3.21385 -0.168593,-4.80734 -0.09073,-0.8497 -0.191784,-1.75896 -0.398561,-2.58809 -0.299839,-1.20229 -0.644807,-2.31876 -1.053293,-3.48861 -0.403409,-1.15531 -0.870222,-2.1547 -1.41558,-3.25017 -0.570402,-1.14578 -1.210207,-2.27708 -1.933357,-3.33312 -0.728498,-1.06385 -1.328287,-1.82151 -2.185693,-2.7845 -0.537616,-0.60382 -1.219218,-1.33509 -1.804872,-1.89244 -0.443071,-0.42166 -1.464961,-1.28054 -1.464961,-1.28054 0,0 -0.07079,-1.39159 -0.136962,-2.06377 -0.06782,-0.68898 -0.143238,-1.28677 -0.344546,-1.94917 -0.255224,-0.83981 -0.868874,-2.64866 -0.868874,-2.64866 0,0 3.636527,2.64664 5.320487,4.13216 1.193434,1.0528 2.350675,2.15878 3.375943,3.37594 0.844802,1.00292 1.534764,2.12717 2.268636,3.2139 0.473753,0.70154 0.961833,1.39608 1.377384,2.13359 0.555388,0.98569 1.036761,2.01323 1.485415,3.05186 0.442906,1.02532 0.858067,2.06593 1.188334,3.13287 0.361571,1.16807 0.625159,2.36585 0.86424,3.565 0.215598,1.08137 0.431723,2.16827 0.513144,3.26791 0.08376,1.13126 0.01942,2.26955 -0.02701,3.40295 -0.04988,1.21765 -0.119983,2.43663 -0.270076,3.64602 -0.115933,0.93415 -0.2619,1.86757 -0.486138,2.78178 -0.297068,1.21114 -0.519984,2.40652 -0.981538,3.565 -0.444097,1.11466 -0.97502,2.21438 -1.528243,3.2791 -0.750682,1.44475 -1.455856,2.88626 -2.376664,4.229 -0.947203,1.38123 -2.025034,2.79792 -3.175704,4.01486 -0.989043,1.046 -2.196,1.99711 -3.312663,2.90562 -1.317539,1.07194 -2.735554,2.11709 -4.197357,2.98202 -1.257855,0.74425 -2.513361,1.40387 -3.866713,1.95573 -1.449858,0.59122 -2.980586,1.0474 -4.494441,1.44723 -1.259774,0.33272 -2.466719,0.5872 -3.758683,0.75621 -1.091366,0.14277 -2.195139,0.21013 -3.29492,0.25424 -1.223491,0.0491 -2.604226,-0.0146 -3.825805,-0.0988 -1.835447,-0.12646 -3.684834,-0.3157 -5.474623,-0.74174 -1.667254,-0.39687 -3.34101,-0.90466 -4.926561,-1.55525 -1.508495,-0.61898 -2.992006,-1.37472 -4.39432,-2.20671 -1.112537,-0.66006 -2.249706,-1.48721 -3.26328,-2.29101 -1.253594,-0.99414 -2.381642,-2.13511 -3.488608,-3.29029 -1.075031,-1.12186 -1.98919,-2.32916 -2.894441,-3.592 -0.579324,-0.80817 -1.0601611,-1.68288 -1.5664383,-2.53871 -0.4741553,-0.80153 -0.9868794,-1.58524 -1.3773851,-2.43068 -0.5947251,-1.28757 -1.0289311,-2.26348 -1.4584076,-3.61518 -0.2909764,-0.9158 -0.5520683,-2.22474 -0.7562114,-3.16372 -0.2597141,-1.19458 -0.4471289,-2.4054 -0.5941661,-3.61901 -0.1520584,-1.25506 -0.3208684,-2.51704 -0.2970832,-3.78105 0.027795,-1.47709 0.2787235,-2.94361 0.5131435,-4.40224 0.2129159,-1.32483 0.4399462,-2.65337 0.8102264,-3.9431 0.3843869,-1.33886 0.8953858,-2.642 1.4584077,-3.91609 0.5403057,-1.22269 1.1637623,-2.40988 1.8365136,-3.565 0.5629797,-0.96664 1.1572285,-1.92001 1.8365135,-2.80878 0.848052,-1.10958 1.823971,-2.11653 2.781777,-3.13288 0.742195,-0.78756 1.504636,-1.55712 2.295642,-2.29564 0.610975,-0.57044 1.212866,-1.1581 1.890534,-1.64744 z"
       id="path1"
       sodipodi:nodetypes="ssscsscssssssssssssssssssssssssssssssssssssscsscsssssssssssssssssssssssssssssssssssssssssss" /><path
       style="fill:#04af5f;fill-opacity:1;stroke:none;stroke-width:0.665001;stroke-dasharray:none;stroke-opacity:1"
       d="m 34.514951,170.52616 c 0,0 -0.728325,-3.32566 -0.857737,-4.78464 -0.107988,-1.21744 -0.07323,-2.47529 0,-3.69532 0.06377,-1.06244 0.126835,-2.10351 0.401043,-3.13194 0.235155,-0.88196 0.673619,-1.78896 1.078994,-2.60677 0.501447,-1.01163 0.978553,-1.95124 1.642362,-2.86458 0.556366,-0.76551 1.270839,-1.5063 1.938366,-2.17709 0.743652,-0.74729 1.50463,-1.44726 2.339411,-2.09115 1.006691,-0.77649 2.10459,-1.45809 3.217881,-2.07205 1.107246,-0.61063 2.316536,-1.1349 3.466147,-1.66145 1.129448,-0.51731 2.256216,-0.9813 3.389757,-1.48958 0.967219,-0.4337 1.953768,-0.88406 2.893229,-1.375 0.961761,-0.5026 1.710061,-0.88613 2.578123,-1.53733 0.990905,-0.74335 2.924873,-2.58248 2.924873,-2.58248 0,0 0.03726,6.42653 -0.375392,9.26047 -0.528093,3.62679 -1.253212,6.59345 -2.745367,9.96524 -0.871748,1.96987 -2.051135,3.70205 -3.702942,5.42361 -1.021624,1.06477 -1.961254,1.93242 -3.300542,2.46953 -1.707698,0.68487 -2.549709,1.23619 -4.530443,1.62191 -1.212375,0.2361 -2.295278,0.31669 -3.563271,0.72761 -0.718974,0.233 -2.665932,1.43829 -2.665932,1.43829 0,0 1.519616,-2.89636 2.34568,-4.22185 1.079615,-1.73233 2.252459,-3.43459 3.475696,-5.06868 1.041433,-1.39122 2.117797,-2.5626 3.176693,-3.94057 0.84411,-1.09847 1.808612,-2.30577 2.619992,-3.42863 0.358,-0.49543 0.344811,-0.45993 0.630572,-1.05071 0.09226,-0.19075 0.135633,-1.01411 0.135633,-1.01411 0,0 -2.099353,2.35776 -3.21952,3.45332 -1.282081,1.25392 -2.703581,2.36096 -3.972221,3.62847 -1.294091,1.29294 -2.539185,2.63881 -3.704863,4.04862 -1.153643,1.39525 -2.234181,2.85323 -3.246527,4.35416 -0.860156,1.27529 -2.369695,4.4027 -2.369695,4.4027 z"
       id="path2"
       sodipodi:nodetypes="csssssssssssscsssssscssssscssssc" /><path
       style="fill:none;fill-opacity:1;stroke:none;stroke-width:0.665001;stroke-dasharray:none;stroke-opacity:1"
       d="m 39.378472,101.25347 c 0,0 -0.78339,5.53674 -1.833333,8.09722 -1.034779,2.5235 -2.739005,4.72608 -4.315973,6.95139 -2.172805,3.06611 -4.739139,5.75768 -7.065972,8.78472 -1.90975,2.48444 -3.997187,5.05633 -4.965278,7.98264 -0.986787,2.98282 -1.573811,6.14018 -1.642361,9.28125 -0.08737,4.00355 0.352224,8.09662 1.57524,11.90979 0.725676,2.26255 1.893006,4.41502 3.349924,6.29202 1.291398,1.66375 4.666275,4.26003 4.666275,4.26003 0,0 -1.03382,-4.79305 -1.188661,-7.23073 -0.147415,-2.32078 -0.08747,-4.67122 0.251541,-6.97183 0.405339,-2.75073 1.398043,-5.50937 2.431337,-8.09067 0.870401,-2.17437 1.984725,-4.05909 3.084483,-6.12694 1.195113,-2.24714 2.385094,-4.49893 3.475693,-6.79861 0.825039,-1.73971 2.453714,-5.29049 2.453714,-5.29049 0,0 0.06576,0.72285 0.08949,1.09453 0.07147,1.11942 -0.129805,2.30186 -0.251541,3.4097 -0.32784,2.98346 -1.32542,5.80343 -2.138889,8.69251 -0.698032,2.4791 -1.576221,4.83838 -2.350315,7.36034 -0.666598,2.17174 -1.303244,6.68946 -1.303244,6.68946 0,0 1.798507,-2.61604 2.914758,-3.71684 1.681255,-1.65798 3.709303,-2.80062 5.668599,-4.11845 1.506809,-1.01348 3.120577,-1.84677 4.508865,-3.01736 0.919777,-0.77555 1.765413,-1.65487 2.478003,-2.62424 0.925057,-1.2584 1.747434,-2.62286 2.291667,-4.0868 0.511593,-1.37614 0.706057,-2.85797 0.878473,-4.31597 0.188502,-1.59402 0.296961,-3.21267 0.166678,-4.8125 -0.139099,-1.70809 -0.536144,-3.39386 -1.006957,-5.04167 -0.525754,-1.8401 -1.191603,-3.64892 -2.019674,-5.37423 -1.052919,-2.19378 -2.236398,-4.46775 -3.697976,-6.41329 -1.896291,-2.52419 -6.504571,-6.77498 -6.504571,-6.77498 z"
       id="path3"
       sodipodi:nodetypes="cssssssscssssscsssscsssssssssscc" /><text
       xml:space="preserve"
       transform="scale(0.26458333)"
       id="text3"
       style="text-align:start;writing-mode:lr-tb;direction:ltr;white-space:pre;shape-inside:url(#rect3);display:inline;fill:#fedb00;fill-opacity:1;stroke:none;stroke-width:2.51339;stroke-dasharray:none;stroke-opacity:1" /><text
       xml:space="preserve"
       transform="scale(0.26458333)"
       id="text1"
       style="font-style:normal;font-variant:normal;font-weight:800;font-stretch:normal;font-family:'Host Grotesk';-inkscape-font-specification:'Host Grotesk Ultra-Bold';text-align:start;writing-mode:lr-tb;direction:ltr;white-space:pre;shape-inside:url(#rect1);display:inline;fill:#000000" /><path
       d="m 84.053867,145.79901 v -23.95358 h 9.478774 q 2.498016,0 4.174766,0.78705 1.71097,0.78704 2.566453,2.19004 0.88971,1.36878 0.88971,3.14818 0,1.81363 -0.78705,3.04553 -0.787046,1.2319 -2.087383,1.88207 -1.266118,0.65017 -2.771771,0.82126 l 0.513291,-0.37641 q 1.642531,0.0342 2.908649,0.85549 1.300334,0.78704 2.018944,2.1216 0.75283,1.33455 0.75283,2.94287 0,1.88206 -0.92393,3.38772 -0.889701,1.47143 -2.634891,2.32692 -1.745189,0.82126 -4.277424,0.82126 z m 4.106328,-3.3535 h 5.13291 q 2.018944,0 3.113965,-0.92392 1.12924,-0.95815 1.12924,-2.70334 0,-1.71097 -1.163459,-2.70333 -1.129241,-1.02658 -3.182404,-1.02658 h -5.030252 z m 0,-10.47114 h 4.790716 q 1.950506,0 2.977087,-0.8897 1.026582,-0.92392 1.026582,-2.53224 0,-1.57409 -1.026582,-2.46379 -0.992362,-0.92393 -3.011307,-0.92393 h -4.756496 z m 16.356875,13.82464 v -23.95358 h 4.10633 v 23.95358 z m 19.06018,0.41063 q -3.55882,0 -6.26215,-1.57409 -2.66911,-1.57409 -4.17477,-4.34586 -1.50565,-2.77177 -1.50565,-6.46747 0,-3.66147 1.50565,-6.43325 1.50566,-2.80599 4.17477,-4.38008 2.70333,-1.57409 6.26215,-1.57409 3.59304,0 6.26215,1.57409 2.70333,1.57409 4.17477,4.38008 1.50565,2.77178 1.50565,6.43325 0,3.6957 -1.50565,6.46747 -1.47144,2.77177 -4.17477,4.34586 -2.66911,1.57409 -6.26215,1.57409 z m 0,-3.66147 q 2.39536,0 4.10633,-1.02658 1.74519,-1.0608 2.70333,-3.01131 0.95814,-1.98473 0.95814,-4.68806 0,-2.70333 -0.95814,-4.65384 -0.95814,-1.9505 -2.70333,-2.97708 -1.71097,-1.06081 -4.10633,-1.06081 -2.32692,0 -4.07211,1.06081 -1.74519,1.02658 -2.73755,2.97708 -0.95814,1.95051 -0.95814,4.65384 0,2.70333 0.95814,4.68806 0.99236,1.95051 2.73755,3.01131 1.74519,1.02658 4.07211,1.02658 z m 26.28051,3.66147 q -3.86679,0 -6.60435,-1.53987 -2.73755,-1.53987 -4.17476,-4.27742 -1.43722,-2.77178 -1.43722,-6.36481 0,-3.72992 1.43722,-6.57013 1.43721,-2.84021 4.10633,-4.4143 2.66911,-1.60831 6.33058,-1.60831 4.20899,0 6.94654,2.01894 2.77177,1.98473 3.55882,5.54355 h -4.61962 q -0.51329,-1.77941 -2.01894,-2.77177 -1.50566,-1.02659 -3.8668,-1.02659 -2.39535,0 -4.14054,1.09502 -1.74519,1.06081 -2.66912,3.04553 -0.8897,1.95051 -0.8897,4.72228 0,2.63489 0.92392,4.55118 0.95815,1.91628 2.77177,2.94287 1.81363,0.99236 4.34587,0.99236 3.11396,0 4.89337,-1.74519 1.81363,-1.77941 1.84785,-4.96181 h -6.84388 v -3.14819 h 10.98443 v 1.74519 q 0,3.83257 -1.403,6.46747 -1.40299,2.63489 -3.86679,3.96945 -2.42958,1.33455 -5.61198,1.33455 z m 11.36081,-0.41063 8.76017,-23.95358 h 4.5854 l 8.76016,23.95358 h -4.34586 l -7.59671,-21.66088 h 1.74519 l -7.5967,21.66088 z m 4.03789,-5.6462 1.12924,-3.25084 h 11.77148 l 1.12924,3.25084 z m 28.7101,6.05683 q -1.71097,0 -3.3535,-0.44485 -1.64253,-0.47907 -3.01131,-1.47143 -1.33455,-0.99236 -2.22426,-2.56646 -0.85548,-1.57409 -1.0608,-3.76413 h 3.83258 q 0.27375,1.77941 1.16345,2.80599 0.88971,1.02658 2.12161,1.47143 1.26612,0.44486 2.60067,0.44486 1.36878,0 2.4638,-0.41064 1.09502,-0.44485 1.74519,-1.26611 0.65017,-0.82127 0.65017,-1.98473 0,-1.12924 -0.65017,-1.98472 -0.61595,-0.88971 -2.56646,-1.2319 l -4.2432,-0.78705 q -2.84021,-0.54751 -4.51696,-2.32692 -1.64253,-1.77941 -1.64253,-4.20898 0,-2.22427 1.12924,-3.79836 1.16346,-1.57409 3.04552,-2.39536 1.91629,-0.85548 4.20899,-0.85548 2.39536,0 4.27742,0.82127 1.88207,0.82126 3.07975,2.49801 1.19768,1.64253 1.43721,4.24321 h -3.90101 q -0.23953,-1.53988 -0.95814,-2.42958 -0.68439,-0.88971 -1.71097,-1.26612 -0.99236,-0.37641 -2.15582,-0.37641 -1.0608,0 -2.15582,0.34219 -1.06081,0.3422 -1.74519,1.09502 -0.68439,0.75283 -0.68439,2.01895 0,1.12924 0.82126,1.9505 0.82127,0.82127 2.53224,1.12924 l 3.93523,0.75283 q 3.01131,0.54751 4.68806,2.15582 1.67675,1.60831 1.67675,4.55118 0,1.77941 -0.75283,3.14819 -0.75283,1.36877 -2.05316,2.2927 -1.26612,0.8897 -2.84021,1.36877 -1.53988,0.47907 -3.18241,0.47907 z"
       id="text2"
       style="font-weight:600;font-size:34.2194px;font-family:'Host Grotesk';-inkscape-font-specification:'Host Grotesk Semi-Bold';fill:#ffcc00;stroke-width:0.264583;fill-opacity:1"
       aria-label="BIOGAS" /><path
       d="m 90.199298,167.45923 q -1.184392,0 -2.257049,-0.31285 -1.072657,-0.31286 -1.921844,-0.93858 -0.849187,-0.62572 -1.385515,-1.58664 -0.513982,-0.98327 -0.581023,-2.30174 h 1.966538 q 0.111735,1.20674 0.692758,1.96654 0.581022,0.73744 1.49725,1.095 0.938575,0.33521 2.011232,0.33521 1.005616,0 1.854803,-0.29052 0.849187,-0.29051 1.340821,-0.91622 0.513982,-0.64807 0.513982,-1.65368 0,-0.87154 -0.513982,-1.54195 -0.491634,-0.67041 -1.832456,-0.91623 l -3.128583,-0.58102 q -1.698373,-0.31286 -2.748683,-1.38551 -1.05031,-1.09501 -1.05031,-2.63695 0,-1.43021 0.737451,-2.43583 0.759799,-1.00561 1.988885,-1.54194 1.251434,-0.53633 2.681643,-0.53633 1.519597,0 2.726337,0.53633 1.206739,0.51398 1.944191,1.56429 0.759798,1.02796 0.89388,2.5699 h -1.988885 q -0.111735,-1.02796 -0.603369,-1.65368 -0.469288,-0.64806 -1.229086,-0.96091 -0.759799,-0.31286 -1.720721,-0.31286 -0.938575,0 -1.720721,0.2905 -0.782146,0.29052 -1.27378,0.87154 -0.491634,0.58103 -0.491634,1.47491 0,0.91622 0.67041,1.54194 0.670411,0.60337 1.787762,0.82684 l 2.949807,0.53633 q 1.899497,0.35755 2.882766,1.43021 1.005616,1.07266 1.005616,2.77103 0,1.20674 -0.491635,2.07827 -0.469287,0.87154 -1.27378,1.45256 -0.804493,0.58102 -1.832456,0.87153 -1.005616,0.29051 -2.10062,0.29051 z m 15.173642,0 q -2.30175,0 -4.04482,-1.00562 -1.743065,-1.02796 -2.726334,-2.83806 -0.960922,-1.83246 -0.960922,-4.24594 0,-2.39113 0.960922,-4.20124 0.983269,-1.83245 2.726334,-2.86042 1.74307,-1.02796 4.04482,-1.02796 2.32409,0 4.04481,1.02796 1.74306,1.02797 2.70399,2.86042 0.98327,1.81011 0.98327,4.20124 0,2.41348 -0.98327,4.24594 -0.96093,1.8101 -2.70399,2.83806 -1.72072,1.00562 -4.04481,1.00562 z m 0,-1.78776 q 1.69837,0 2.97215,-0.73745 1.27378,-0.7598 1.98889,-2.16766 0.7151,-1.43021 0.7151,-3.39675 0,-1.96654 -0.7151,-3.3744 -0.71511,-1.40786 -1.98889,-2.16766 -1.27378,-0.7598 -2.97215,-0.7598 -1.67603,0 -2.97216,0.7598 -1.27378,0.7598 -1.98888,2.16766 -0.692763,1.40786 -0.692763,3.3744 0,1.96654 0.692763,3.39675 0.7151,1.40786 1.98888,2.16766 1.29613,0.73745 2.97216,0.73745 z m 10.03382,1.5196 v -15.64292 h 2.01123 v 14.03393 h 7.24043 v 1.60899 z m 16.89436,0.26816 q -1.63133,0 -2.94981,-0.64806 -1.31847,-0.64806 -2.10062,-1.98888 -0.78214,-1.36318 -0.78214,-3.44145 v -9.83269 h 2.01123 v 9.85504 q 0,2.2347 1.0503,3.24032 1.07266,1.00561 2.81573,1.00561 1.72073,0 2.77103,-1.00561 1.05032,-1.00562 1.05032,-3.24032 v -9.85504 h 2.01123 v 9.83269 q 0,2.07827 -0.8045,3.44145 -0.78215,1.34082 -2.12297,1.98888 -1.31847,0.64806 -2.9498,0.64806 z m 12.67078,-0.26816 v -13.98924 h -4.64818 v -1.65368 h 11.30759 v 1.65368 h -4.64818 v 13.98924 z m 9.16227,0 v -15.64292 h 2.01123 v 15.64292 z m 12.11207,0.26816 q -2.30174,0 -4.04481,-1.00562 -1.74307,-1.02796 -2.72634,-2.83806 -0.96092,-1.83246 -0.96092,-4.24594 0,-2.39113 0.96092,-4.20124 0.98327,-1.83245 2.72634,-2.86042 1.74307,-1.02796 4.04481,-1.02796 2.32409,0 4.04481,1.02796 1.74307,1.02797 2.70399,2.86042 0.98327,1.81011 0.98327,4.20124 0,2.41348 -0.98327,4.24594 -0.96092,1.8101 -2.70399,2.83806 -1.72072,1.00562 -4.04481,1.00562 z m 0,-1.78776 q 1.69837,0 2.97216,-0.73745 1.27377,-0.7598 1.98888,-2.16766 0.7151,-1.43021 0.7151,-3.39675 0,-1.96654 -0.7151,-3.3744 -0.71511,-1.40786 -1.98888,-2.16766 -1.27379,-0.7598 -2.97216,-0.7598 -1.67602,0 -2.97215,0.7598 -1.27379,0.7598 -1.98889,2.16766 -0.69275,1.40786 -0.69275,3.3744 0,1.96654 0.69275,3.39675 0.7151,1.40786 1.98889,2.16766 1.29613,0.73745 2.97215,0.73745 z m 10.10086,1.5196 v -15.64292 h 2.01123 l 8.20137,12.31321 v -12.31321 h 2.01123 v 15.64292 h -2.01123 l -8.20137,-12.33556 v 12.33556 z m 20.7157,0.26816 q -1.1844,0 -2.25706,-0.31285 -1.07266,-0.31286 -1.92184,-0.93858 -0.84919,-0.62572 -1.38552,-1.58664 -0.51397,-0.98327 -0.58102,-2.30174 h 1.96654 q 0.11174,1.20674 0.69276,1.96654 0.58102,0.73744 1.49725,1.095 0.93857,0.33521 2.01123,0.33521 1.00562,0 1.85481,-0.29052 0.84918,-0.29051 1.34082,-0.91622 0.51397,-0.64807 0.51397,-1.65368 0,-0.87154 -0.51397,-1.54195 -0.49164,-0.67041 -1.83246,-0.91623 l -3.12858,-0.58102 q -1.69838,-0.31286 -2.74869,-1.38551 -1.05031,-1.09501 -1.05031,-2.63695 0,-1.43021 0.73745,-2.43583 0.7598,-1.00561 1.98889,-1.54194 1.25143,-0.53633 2.68164,-0.53633 1.5196,0 2.72634,0.53633 1.20674,0.51398 1.94419,1.56429 0.75979,1.02796 0.89388,2.5699 h -1.98888 q -0.11174,-1.02796 -0.60338,-1.65368 -0.46928,-0.64806 -1.22908,-0.96091 -0.7598,-0.31286 -1.72072,-0.31286 -0.93858,0 -1.72072,0.2905 -0.78215,0.29052 -1.27379,0.87154 -0.49163,0.58103 -0.49163,1.47491 0,0.91622 0.67041,1.54194 0.67041,0.60337 1.78776,0.82684 l 2.94981,0.53633 q 1.8995,0.35755 2.88277,1.43021 1.00561,1.07266 1.00561,2.77103 0,1.20674 -0.49163,2.07827 -0.46929,0.87154 -1.27378,1.45256 -0.80449,0.58102 -1.83245,0.87153 -1.00563,0.29051 -2.10062,0.29051 z"
       id="text5"
       style="font-size:22.225px;font-family:'Host Grotesk';-inkscape-font-specification:'Host Grotesk';fill:#04af5f;fill-opacity:1;stroke:none;stroke-width:0.266036"
       aria-label="SOLUTIONS" /><path
       style="fill:#ffcc00;fill-opacity:1;stroke:none;stroke-width:0.264583;stroke-opacity:1"
       d="m 38.836061,100.90868 c 0,0 -0.314155,4.78349 -0.7014,6.36531 -0.530286,2.16612 -1.866194,4.27446 -2.97083,6.21174 -2.295801,4.02631 -4.699536,6.10324 -7.454085,9.83075 -1.84972,2.50308 -3.672817,3.89381 -5.023403,6.69787 -1.268543,2.63373 -2.326598,6.0207 -2.754771,8.91248 -0.400885,2.70749 -0.568665,5.76618 -0.21606,8.85849 0.372665,3.26823 1.649867,6.47103 2.916816,9.50666 1.630487,3.90667 6.427796,7.184 6.427796,7.184 0,0 -1.384676,-6.78671 -1.242346,-9.99279 0.182764,-4.1169 0.478378,-7.55818 2.322649,-11.34318 3.200946,-6.56929 9.614687,-19.49944 9.614687,-19.49944 0,0 -0.303832,5.63231 -0.810226,8.26431 -0.72054,3.74502 -2.179486,7.05638 -3.132875,10.749 -0.721648,2.79505 -1.99856,8.42636 -1.99856,8.42636 0,0 4.257413,-4.61057 6.373781,-6.04969 3.581549,-2.43544 4.81344,-2.6556 7.29204,-4.96939 1.276738,-1.19184 2.664357,-2.84652 3.40295,-4.42925 1.084339,-2.32363 1.489742,-4.78519 1.620454,-7.34604 0.164506,-3.22293 -0.349721,-6.4215 -1.296362,-9.50666 -0.987416,-3.21804 -2.767638,-6.00907 -4.375225,-8.96651 -1.89861,-3.49283 -7.99503,-8.90402 -7.99503,-8.90402 z"
       id="path5"
       sodipodi:nodetypes="cssssssscsscsscssssssc" /><text
       xml:space="preserve"
       transform="scale(0.26458333)"
       id="text6"
       style="font-style:normal;font-variant:normal;font-weight:600;font-stretch:normal;font-size:84px;font-family:'Host Grotesk';-inkscape-font-specification:'Host Grotesk Semi-Bold';text-align:start;writing-mode:lr-tb;direction:ltr;white-space:pre;shape-inside:url(#rect6);display:inline;fill:#f3d909;fill-opacity:1;stroke:none;stroke-opacity:1" /></g></svg>
