<svg xmlns="http://www.w3.org/2000/svg" viewBox="0 0 188.51 46.49"><title>stallkamp-logo</title><path d="M16.61,10.29c0,0.8.08,1.9-.8,1.9-0.68,0-.92-0.7-1.08-1.35-0.76-2.8-2-5.44-4.6-5.44A4.49,4.49,0,0,0,5.61,9.89c0,2.65,2,3.64,3.68,4.34l2,0.85c4,1.6,7.16,4.15,7.16,9.94a11.76,11.76,0,0,1-3.2,8,9.91,9.91,0,0,1-7.36,3,15.34,15.34,0,0,1-6.76-1.65C-0.11,33.56,0,32.91,0,31.26V28.51c0-.8-0.16-2.7.8-2.7S2,27.31,2.17,28.16a9.49,9.49,0,0,0,1.6,4.14,5.22,5.22,0,0,0,4.16,1.8,5.23,5.23,0,0,0,5.44-5.29c0-4-3.48-5.24-6-6.49-3.16-1.65-7-3.89-7-8.89,0-6.59,5.8-10.09,10.4-10.09A11.94,11.94,0,0,1,16,4.64c0.76,0.5.64,1.3,0.64,2.25v3.4" style="fill:#5b5f62"/><path d="M27.7,25.12c0,1.85-.16,6.74,2,6.74,1.32,0,2.2-1.45,2.8-1.45a0.6,0.6,0,0,1,.48.7,4.62,4.62,0,0,1-1.12,2,7.1,7.1,0,0,1-5.2,2.55,4.45,4.45,0,0,1-3.68-2.1,11.28,11.28,0,0,1-1.16-5.54V17.63a18.39,18.39,0,0,0-.12-2.1,0.87,0.87,0,0,0-1-.65c-0.52,0-1.8.25-1.8-.55A1.78,1.78,0,0,1,20.18,13,11.49,11.49,0,0,0,25.5,7.54c0.28-.65.68-1.65,1.36-1.65,0.84,0,.68,1.15.68,1.85v3.45c0,1.4.24,1.35,1.28,1.35H30.9c0.84,0,1.44-.25,1.44,1S32.06,14.88,31,14.88H29c-1.32,0-1.32-.05-1.32,1.95v8.29" style="fill:#5b5f62"/><path d="M45.67,25.07v2.4a6,6,0,0,1-.4,2.25,3.52,3.52,0,0,1-2.88,1.9c-1.36,0-2.16-1.35-2.16-2.9a4.61,4.61,0,0,1,2.12-3.79A16.32,16.32,0,0,1,45.22,23c0.52,0,.44,1.95.44,2.1m8.64,5.29a2.55,2.55,0,0,0-1,.6,1.42,1.42,0,0,1-1,.5c-1.12,0-.92-2.35-0.92-3.09V17.48c0-1.65-.08-3.2-1.36-4.19a8.94,8.94,0,0,0-5.12-1.4,11.2,11.2,0,0,0-7.48,2.65c-1,.8-2.72,3-2.72,4.64A1.12,1.12,0,0,0,36,20.32a7.24,7.24,0,0,0,3.28-1.1c1.08-.55,1.32-1.25,1.72-2.45,0.52-1.5,1.44-3.15,2.88-3.15,2.08,0,1.8,3.5,1.8,5.19v1.65a1.21,1.21,0,0,1-.44.5,11.64,11.64,0,0,1-3.8,2.3,16.67,16.67,0,0,0-4.6,2.7,6,6,0,0,0-2.16,4.84c0,2.94,1.8,4.89,4.16,4.89,4,0,6.44-4,6.92-4s0.6,1,.68,1.15c0.64,1.7,1.4,2.4,3,2.4a6.31,6.31,0,0,0,4.4-2.3,3.25,3.25,0,0,0,1-1.9A0.63,0.63,0,0,0,54.31,30.36Z" style="fill:#5b5f62"/><path d="M63.92,31.16a2.25,2.25,0,0,0,2.2,2.2A1.22,1.22,0,0,1,67.4,34.5a0.75,0.75,0,0,1-.92.85c-1.92,0-3.76-.1-5.6-0.1s-3.84.1-5.76,0.1a0.76,0.76,0,0,1-1-.85,1.08,1.08,0,0,1,1.08-1.15c2.44-.35,2.44-2,2.44-2.2V7.89c0-2.75.12-3.25-2.12-3.65a0.79,0.79,0,0,1-.8-0.75c0-.95,1.16-1,1.72-1.15A20.88,20.88,0,0,0,61.76.55,4.17,4.17,0,0,1,63.24,0c0.88,0,.68,1.7.68,2.4V31.16" style="fill:#5b5f62"/><path d="M78.28,31.16a2.25,2.25,0,0,0,2.2,2.2,1.22,1.22,0,0,1,1.28,1.15,0.75,0.75,0,0,1-.92.85c-1.92,0-3.76-.1-5.6-0.1s-3.84.1-5.76,0.1a0.76,0.76,0,0,1-1-.85,1.08,1.08,0,0,1,1.08-1.15C72,33,72,31.31,72,31.16V7.89c0-2.75.12-3.25-2.12-3.65a0.79,0.79,0,0,1-.8-0.75c0-.95,1.16-1,1.72-1.15A20.88,20.88,0,0,0,76.12.55,4.16,4.16,0,0,1,77.6,0c0.88,0,.68,1.7.68,2.4V31.16" style="fill:#5b5f62"/><path d="M104,31.16c0.68,1.2.8,1.9,1.92,2.35a1,1,0,0,1,.88,1c0,0.7-.52.7-1,0.7H97.73a0.75,0.75,0,0,1-.88-0.8,2.49,2.49,0,0,1,.16-0.8,2.29,2.29,0,0,0,.24-0.9,6.59,6.59,0,0,0-1-2.3L92.73,24a1.23,1.23,0,0,0-.44-0.6c-0.36,0-.24.75-0.24,1.25v5.29a6.13,6.13,0,0,0,.24,2.15,1.73,1.73,0,0,0,1.12,1.3c0.56,0.1,1.32.1,1.32,1a0.86,0.86,0,0,1-1,.95c-1.76,0-3.52-.1-5.2-0.1s-3.12.1-4.64,0.1a1,1,0,0,1-1.24-.95,1,1,0,0,1,1-1c0.56-.1,1.6-0.15,1.84-0.9a16.67,16.67,0,0,0,.32-3.79V7.89c0-2.75.12-3.25-2.12-3.65a0.79,0.79,0,0,1-.8-0.75c0-.95,1.16-1,1.72-1.15A20.87,20.87,0,0,0,89.89.55,4.17,4.17,0,0,1,91.37,0c0.88,0,.68,1.7.68,2.4V19.87c0,0.3-.12,1.2.32,1.2s5.56-4.89,5.56-5.79a1,1,0,0,0-1.16-.8,1.19,1.19,0,0,1-1.44-1.1c0-.95,1.08-0.95,1.56-0.95,1.2,0,2.4.1,3.6,0.1s2.4-.1,3.6-0.1a0.94,0.94,0,0,1,1.2,1c0,0.8-.8.9-1.28,1a12.67,12.67,0,0,0-5.44,3.2,2.85,2.85,0,0,0-1.2,1.4,6,6,0,0,0,.6,1.15l6,10.94" style="fill:#5b5f62"/><path d="M118.22,25.07v2.4a6,6,0,0,1-.4,2.25,3.52,3.52,0,0,1-2.88,1.9c-1.36,0-2.16-1.35-2.16-2.9a4.61,4.61,0,0,1,2.12-3.79A16.23,16.23,0,0,1,117.78,23c0.52,0,.44,1.95.44,2.1m8.64,5.29a2.55,2.55,0,0,0-1,.6,1.42,1.42,0,0,1-1,.5c-1.12,0-.92-2.35-0.92-3.09V17.48c0-1.65-.08-3.2-1.36-4.19a8.94,8.94,0,0,0-5.12-1.4A11.2,11.2,0,0,0,110,14.53c-1,.8-2.72,3-2.72,4.64a1.12,1.12,0,0,0,1.24,1.15,7.25,7.25,0,0,0,3.28-1.1c1.08-.55,1.32-1.25,1.72-2.45,0.52-1.5,1.44-3.15,2.88-3.15,2.08,0,1.8,3.5,1.8,5.19v1.65a1.21,1.21,0,0,1-.44.5,11.65,11.65,0,0,1-3.8,2.3,16.67,16.67,0,0,0-4.6,2.7,6,6,0,0,0-2.16,4.84c0,2.94,1.8,4.89,4.16,4.89,4,0,6.44-4,6.92-4s0.6,1,.68,1.15c0.64,1.7,1.4,2.4,3,2.4a6.31,6.31,0,0,0,4.4-2.3,3.25,3.25,0,0,0,1-1.9A0.63,0.63,0,0,0,126.86,30.36Z" style="fill:#5b5f62"/><path d="M136.65,14.63c0.64,0,2.64-2.75,6.2-2.75a6,6,0,0,1,5,2.45,2,2,0,0,0,.6.65c0.36,0,3-3.1,6.16-3.1a7.57,7.57,0,0,1,5.24,2c1.88,1.85,1.8,4,1.8,6.59v8c0,1.2-.16,3,0.4,4a2.73,2.73,0,0,0,1.88.85,1.11,1.11,0,0,1,1,1.1,1,1,0,0,1-1.24.9c-1.44,0-2.8-.1-4.24-0.1-1.84,0-3.68.1-5.52,0.1a0.81,0.81,0,0,1-.92-0.9,1.07,1.07,0,0,1,.8-1.1,2.46,2.46,0,0,0,1.68-1.1c0.4-.75.28-2.8,0.28-3.75V21.67a17.13,17.13,0,0,0-.36-4.59,3.21,3.21,0,0,0-2.92-2.15,3.29,3.29,0,0,0-3.08,1.65,7.71,7.71,0,0,0-.2,2.75v9.19c0,0.95-.12,3,0.28,3.75a2.38,2.38,0,0,0,1.68,1.1,1.06,1.06,0,0,1,.8,1.1,0.83,0.83,0,0,1-.92.9c-1.84,0-3.6-.1-5.36-0.1-1.36,0-2.8.1-4.16,0.1a0.82,0.82,0,0,1-1-.9,1,1,0,0,1,.8-1.1,2.81,2.81,0,0,0,1.56-.85c0.56-.9.36-2.85,0.36-4V21.12c0-2.85-.2-6.19-3.08-6.19a3.6,3.6,0,0,0-3,1.55c-0.68,1-.52,2.5-0.52,3.69v8.34c0,0.95-.12,3,0.28,3.75a2.46,2.46,0,0,0,1.68,1.1,1.07,1.07,0,0,1,.8,1.1,0.81,0.81,0,0,1-.92.9c-1.84,0-3.68-.1-5.52-0.1-1.44,0-2.8.1-4.24,0.1a1,1,0,0,1-1.24-.9,1.11,1.11,0,0,1,1-1.1,2.74,2.74,0,0,0,1.88-.85c0.56-.95.4-2.8,0.4-4V21.17c0-2.1.12-3.24-1.76-3.54-0.56,0-1.2,0-1.2-.85s1.28-1,1.72-1.2a11,11,0,0,0,5.16-3.4,1.65,1.65,0,0,1,1.44-.9c0.64,0,.56,1.3.56,1.8v1.55" style="fill:#5b5f62"/><path d="M177,33.81c-2.56,0-2.72-3-2.72-5.64V19.87c0-.9-0.16-2.35.24-3a3.29,3.29,0,0,1,2.6-1.55c3.68,0,5,5.74,5,9.44s-1.36,9-5.08,9m2.84-21.92c-1.76,0-2.56.55-4,1.7l-0.88.75a1.46,1.46,0,0,1-.72.45v-1.7c0-.5.08-1.8-0.56-1.8a1.66,1.66,0,0,0-1,.9c-1.16,1.7-4,2.8-5.72,3.4-0.44.15-1.72,0.3-1.72,1.2s0.64,0.8,1.2.85c1.72,0.15,1.6,1.45,1.6,3.54V42.29c0,0.15,0,1.85-2.44,2.2a1.08,1.08,0,0,0-1.08,1.15,0.76,0.76,0,0,0,1,.85c1.92,0,3.84-.1,5.76-0.1s3.68,0.1,5.6.1a0.75,0.75,0,0,0,.92-0.85,1.22,1.22,0,0,0-1.28-1.15,2.25,2.25,0,0,1-2.2-2.2V36.5c0-.45-0.16-1.6.28-1.6a2.63,2.63,0,0,1,.6.15,9.83,9.83,0,0,0,3.36.65c5.64,0,10-5.49,10-12.53C188.51,17.08,184.87,11.88,179.87,11.88Z" style="fill:#5b5f62"/><rect x="0.01" y="39.97" width="159.45" height="6.38" style="fill:#c10016"/></svg>